<svg xmlns="http://www.w3.org/2000/svg" viewBox="0 0 512 512" role="img" aria-label="Original green slime monster">
  <defs>
    <radialGradient id="slimeBody" cx="34%" cy="24%" r="74%">
      <stop offset="0" stop-color="#baff8d"/>
      <stop offset=".45" stop-color="#52d56f"/>
      <stop offset="1" stop-color="#14945e"/>
    </radialGradient>
    <linearGradient id="slimeBase" x1="94" y1="360" x2="420" y2="434" gradientUnits="userSpaceOnUse">
      <stop stop-color="#0b734f"/>
      <stop offset=".52" stop-color="#3bd565"/>
      <stop offset="1" stop-color="#0b7458"/>
    </linearGradient>
    <filter id="softShadow" x="-20%" y="-20%" width="140%" height="145%">
      <feDropShadow dx="0" dy="18" stdDeviation="18" flood-color="#0b3028" flood-opacity=".28"/>
    </filter>
  </defs>
  <ellipse cx="256" cy="438" rx="154" ry="32" fill="#0b3028" opacity=".22"/>
  <g filter="url(#softShadow)">
    <path d="M94 351c0-114 72-226 162-226 95 0 162 113 162 226 0 81-68 113-162 113S94 431 94 351Z" fill="url(#slimeBody)"/>
    <path d="M101 356c49 34 267 34 310 0 0 77-64 108-155 108s-155-31-155-108Z" fill="url(#slimeBase)" opacity=".74"/>
    <path d="M143 321c25 22 54 32 86 30 42-2 69-23 112-18 26 3 48 14 63 31-13 64-70 94-148 94-85 0-145-31-155-95 9-17 23-31 42-42Z" fill="#2fcf68" opacity=".38"/>
    <ellipse cx="197" cy="244" rx="25" ry="35" fill="#103327"/>
    <ellipse cx="319" cy="244" rx="25" ry="35" fill="#103327"/>
    <circle cx="205" cy="230" r="8" fill="#f1fff4"/>
    <circle cx="327" cy="230" r="8" fill="#f1fff4"/>
    <path d="M212 319c31 25 63 25 95 0" fill="none" stroke="#103327" stroke-width="15" stroke-linecap="round"/>
    <path d="M169 160c23-29 63-44 99-37 12 2 18 17 8 24-28 20-77 15-109 33-13 7-24-7-14-20Z" fill="#eaffbd" opacity=".55"/>
    <circle cx="151" cy="229" r="16" fill="#eaffbd" opacity=".34"/>
    <circle cx="378" cy="292" r="12" fill="#eaffbd" opacity=".24"/>
  </g>
</svg>
